<?xml version="1.0" encoding="utf-8"?>
<!-- Generator: Adobe Illustrator 24.3.0, SVG Export Plug-In . SVG Version: 6.00 Build 0)  -->
<svg version="1.1" xmlns="http://www.w3.org/2000/svg" xmlns:xlink="http://www.w3.org/1999/xlink" x="0px" y="0px"
	 viewBox="0 0 2000 2000" style="enable-background:new 0 0 2000 2000;" xml:space="preserve">
<style type="text/css">
	.st0{display:none;}
	.st1{display:inline;}
	.st2{fill:#FFFFFF;}
	.st3{fill:#004C98;}
	.st4{fill:#0088AC;}
	.st5{fill:#F6941F;}
	.st6{fill:#00ABC5;}
</style>
<g id="Layer_2" class="st0">
	<rect class="st1" width="2000" height="2000"/>
</g>
<g id="Layer_1">
	<g>
		<path class="st2" d="M1376.3,1468.6c-7.6,0-15.2-0.4-22.8-1.1c-32.9-2.5-65.4-8.4-96.6-17.7l-88.8-21.4l16.8-16.8h4.2
			c33.7-8.9,65.6-25.6,92.1-48.2l62.4-61.4l0.1-0.1c12.4-11.4,54.7-48.5,59.7-51l14.6-7.6v21.4l-38.5,78.2
			c-9.8,21.5-24.2,40.1-42.1,54.6c25.4-2.5,50.6-4.1,75.5-4.8l0.2,0c28.9-0.4,57.6-4.7,85.4-12.9c15.6-5.1,30.2-12.2,43.8-21.1
			l-10.9-10.7l27.2,2c11.4,0.8,11.8,10.4,11.8,11.5v3.1l-1.7,2.5C1525.2,1430.6,1453.3,1468.6,1376.3,1468.6z"/>
		<path class="st3" d="M1560.3,1361.3c-45.9,67.3-124.9,104.2-205.9,96.2c-32.2-2.4-64-8.2-94.9-17.4l-71.7-17.3l1.3-1.3h1.3
			c36-9.3,69.4-26.7,97.6-50.8l62.5-61.5c17.4-16.1,54.8-48.1,57.5-49.5v2.6l-37.5,76.2c-14.9,32.8-41.7,58.6-75,72.2
			c-1.3,1.3,0,1.3,2.7,1.3c38.1-5.1,76.5-8.3,115-9.4c29.9-0.4,59.6-4.9,88.2-13.3c20.3-6.6,39.3-16.5,56.3-29.4l-0.1-0.1
			C1559,1359.9,1560.3,1359.9,1560.3,1361.3z"/>
		<path class="st2" d="M1544.5,588.3c-2.8-2.4-8.3-6.9-14.8-12.1c-14.6-11.7-34.5-27.8-43.2-36.5c-18.8-17.7-35.1-37.7-48.3-59.3
			c-13.4-20.1-29.3-39-47.4-56.4l-7.7-5.2V398l12.4,3.1c34.9,8.6,68.2,25,96.2,47.4c48.8,39.2,67.5,117.2,69.2,131l3.1,25.6
			L1544.5,588.3z"/>
		<path class="st3" d="M1397.2,416.2l-4-2.7v-2.7c33.7,8.3,65.2,23.8,92.3,45.5c46.7,37.5,64.2,113.7,65.5,124.4
			c-9.3-8-45.5-36.1-57.5-48.2c-18.1-17-33.9-36.3-46.8-57.5C1432.5,453.7,1415.8,434,1397.2,416.2z"/>
		<path class="st2" d="M347.1,916.7l-21.4-65.4l-0.1,0l-3.7-10.9c-8.6-25.6-15.9-53.4-21.7-75.7l-0.1-0.6l-0.1-0.6
			c-8.5-61.8,12.5-142.1,48.9-186.9l7-8.6l7.8,7.8c2.7,2.7,4.2,5.1,4.2,9.7c0,2.2-0.6,4.2-1.1,5.7c-0.1,0.2-0.1,0.4-0.2,0.6v2
			l-1.5,2.4c-0.6,1-1.1,2.4-1.2,3.8l-0.1,0.5l-0.1,0.5c-6.9,31.4-7.3,63.3-1.4,94.8c4.8,23,7.5,46.2,8.1,69.2
			c13.6-21.4,31.5-40.2,52.4-54.7c17.6-14.8,33.1-32,46-51.1l3-4.4h23.1l-4.3,13.1c-0.2,0.5-0.6,1.8-1.1,3.5
			c-3.7,11.9-13.5,43.6-20.6,60.1l-0.2,0.4l-0.2,0.4c-13.8,26.2-30.3,50.9-49.1,73.7l-3.8,5.1c-21.4,29.8-38.3,62.3-50.5,96.6
			c-1.1,5-5.6,8.8-11,8.8H347.1z"/>
		<path class="st3" d="M310,762.3c-8.1-58.8,12-136.4,46.8-179.2c1.3,1.3,1.3,1.3,1.3,2.6s-1.3,4.1-1.3,5.4c-1.5,2.4-2.4,5.2-2.7,8
			c-7.1,32.5-7.6,66.2-1.4,98.9c5.4,26.1,8.2,52.7,8.1,79.3c0,5.3-2.7,36.1-2.7,38.8s1.4,0,1.4,0l8-22.8c1.3-4,4-8,5.3-12
			c13.6-25.1,32.9-46.6,56.3-62.8c18.5-15.5,34.7-33.5,48.2-53.5h4c-1.3,4-13.4,44.1-21.4,62.8c-13.5,25.6-29.6,49.8-48.1,72.2
			l-4,5.4c-22,30.7-39.6,64.4-52.1,100c0,0.7-0.6,1.3-1.3,1.3l0,0l-22.7-69.5l-0.2,0.1C323.3,813,316.6,787.6,310,762.3z"/>
		<path class="st2" d="M370.8,736.3v-29.9l-1.5-69.9l0.6-0.4v-16.9c-0.8-23.3,3.6-46.9,12.9-68.2c14.6-35.6,41.4-64.9,75.5-82.5
			c0.5-0.3,1-0.5,1.4-0.8c2.1-1.2,5.2-3,9.9-3h10v17.1l-3,2.9c-9.9,9.7-17.7,21.3-23.2,34.2c-5.3,12.8-8.5,30.3-11.6,47.3
			c-2,11-4.1,22.5-6.8,32.7l-2.4,8.7c14.2-12.4,30.2-22.8,48.9-34.6c16.5-10.2,30.9-23.3,42.7-38.9l9.6-13.5h16.5v15.1l-0.2,1
			c-6.8,31.7-22.2,61.1-44.3,85.1l-0.4,0.4l-54,46c-22.5,19.5-43.3,41.1-61.6,64.1l-3,3.8H370.8z"/>
		<path class="st3" d="M379.9,641.8v-22.7c-0.8-22,3.3-43.9,12.1-64.1c13.7-33.4,38.8-60.9,70.9-77.5c2.7-1.4,4-2.7,6.7-2.7v2.9
			c-10.9,10.7-19.5,23.5-25.4,37.5c-9.4,22.5-12.1,55.9-18.8,81.3l-12,44.1c-1.4,2.7,0,2.7,1.3,1.3c18.8-25.4,40.1-40.1,72.2-60.2
			c17.6-10.9,33-25,45.5-41.5l6.7-9.4h1.3v4c-6.5,30.1-21,57.8-41.9,80.4L445,660.8c-22.9,19.8-44,41.7-62.9,65.5h-1.3v-20
			l-1.4-64.2L379.9,641.8z"/>
		<path class="st2" d="M1603.9,1092.9c-3.9-3.9-4.2-7.1-4.2-11.1v-0.4l0-0.4c2.8-31.9-1.6-64.5-12.7-94.3
			c-20.1-51.1-33.7-105-40.7-160c-1.1-7.9-1.6-15.3-1.5-22.9l0.2-10.9l10.8,1.1c3.3,0.3,6.4,1.8,8.8,4.2l1.2,1.2l0.7,1.6
			c10.5,22.2,22.4,43.4,35.4,62.9l0.1,0.2c2.4,3.8,4.8,7.5,7.2,11.3c14.2,22,28.7,44.6,35.8,70.2c5.8-15.2,12.8-29.2,19.7-42.9
			c17.3-34.6,35.3-70.4,35.3-127v-3.9l13.4-14.4l6.7,12.1c3.2,5.9,5.8,12,7.5,18.1c16.3,53,14.3,106.2-6,158.3
			c-16.1,41.5-39.6,70.5-49.6,83c-1,1.2-1.8,2.2-2.5,3.1c-6.5,8.2-14.8,17.5-22.8,26.5c-10.4,11.7-21.2,23.8-27.7,33.2l-6.8,9.9
			L1603.9,1092.9z"/>
		<path class="st3" d="M1648.6,966.8c17.4-61.5,61.5-100.3,61.5-191.2l1.3-1.4c2.8,5.1,5.1,10.5,6.7,16.1
			c38.7,125.7-41.6,216.6-56.3,235.3c-14.7,18.7-38.8,42.8-50.8,60.2c-1.3-1.3-1.3-1.3-1.3-4c2.9-33.5-1.6-67.2-13.3-98.7
			c-19.9-50.7-33.3-103.7-40.1-157.8c-1-7.1-1.5-14.2-1.4-21.4c1,0.1,2,0.6,2.7,1.3c10.5,22.2,22.5,43.7,36.1,64.2
			c20.1,31.8,42.8,62.5,45.5,100c1.1,10.7,1.6,21.4,1.4,32.1h0.1C1642.5,989.8,1645.2,978.2,1648.6,966.8z"/>
		<path class="st2" d="M439,589.1l1.4-11.2c2.2-18,20.6-93.1,70.6-132.2c27.8-23.1,61.1-39.5,96.3-47.4l12.2-2.7v19.2l-7,7.2
			l-0.2,0.2c-18.4,16.8-34.5,35.9-47.8,56.8c-13.8,21.6-30.1,41.5-48.2,59.3l-0.3,0.3l-61.4,50.6H439z"/>
		<path class="st3" d="M450.3,579.1c1.3-10.7,17.3-86.9,66.9-125.6c26.7-22.2,58.3-37.8,92.2-45.4v2.6l-4,4.1
			c-19,17.3-35.7,37.1-49.5,58.8c-13.4,20.9-29.1,40.2-46.8,57.5l-58.3,48H450.3z"/>
		<path class="st2" d="M379.5,1092.9c-8.5-12.4-22.2-27.9-35.5-42.8c-4.7-5.2-9.1-10.2-13.2-15l-0.2-0.2
			c-8.2-9.5-33.1-38.4-50.5-80.6c-22.1-53.7-24.7-108.9-7.6-164.1l0.2-0.8l0.3-0.7c1.1-2.2,2-4.6,2.9-7.1c1.1-2.9,2.2-5.8,3.7-8.9
			l5.9-12.1l14.5,13.4v4.4c0,57.9,18.1,94.1,35.7,129.2c6.7,13.4,13.6,27.2,19.4,42.1c7.2-31.6,25.7-59,44.4-84.7
			c13.1-19.8,24.8-40.4,34.6-61.3c1.1-5.2,5.2-8.5,11-8.5h10v10c0,1.3-0.2,3.4-0.5,7.1c-0.4,4.4-0.8,10.5-0.8,14.3v0.7l-0.1,0.7
			c-7.8,54.2-21.5,108-40.7,159.8l-0.1,0.2l-0.1,0.2c-12.2,29.6-17,62.1-14,94.1l0,0.5v0.5c0,4-0.3,7.1-4.1,11l-8.5,8.5
			L379.5,1092.9z"/>
		<path class="st3" d="M338.4,1028.6c-16.2-18.8-95.1-109.7-56.3-235.4c2.6-5.3,4-10.7,6.6-16l1.4,1.3c0,91.2,42.7,129.7,61.5,191.2
			l9.4,32.1v1.3c0.7,0,1.3-0.6,1.3-1.3c-1.3-10.7-1.3-21.4,0-32.1c2.7-37.5,24.1-69.5,45.5-98.9c13.6-20.5,25.7-41.9,36.1-64.2
			c0-1.3,0-1.3,1.3-1.3c0,2.6-1.3,14.7-1.3,21.4c-7.8,53.9-21.3,106.7-40.2,157.8c-12.9,31.3-17.9,65.2-14.7,98.9
			c0,2.6,0,2.7-1.2,3.9C375.9,1069.9,354.6,1047.3,338.4,1028.6z"/>
		<path class="st2" d="M1122.4,1566.6c-35.4-36.8-76-68.1-120.6-93l-0.5-0.3l-0.5-0.3c-0.1,0-0.1-0.1-0.1-0.1c0,0-0.1,0-0.1,0.1
			l-0.5,0.3l-0.5,0.3c-44.8,25.2-85.4,56.5-120.6,93l-35.9,39.2l-42.4-36.2l8-7.6c1.5-1.4,36.8-35.3,57.2-50.3
			c25.5-19.7,52.8-37.2,81.4-52.1c-0.3,0-0.5,0-0.8,0c-16.4,0-32.3,4.7-46.1,13.5l-56.2,37.4c-32.2,22-69.8,36.4-108.5,41.7l-0.2,0
			c-8,0.9-16.1,1.4-24.1,1.4c-18,0-35.9-2.4-53.2-7c-37.4-9.9-71.5-29.7-98.4-57.5l-2.8-2.9v-4.1c0-6.9,4.4-11.3,11.3-11.3h2.4
			l7.5,3.7c24.4,11.9,51.6,18.1,78.8,18.1c13,0,26-1.4,38.8-4.2c27.6-7,54.9-16.7,81-28.7l0.2-0.1l0.2-0.1c7.2-2.9,14.5-6,21.5-9.1
			c12.2-5.3,24.8-10.8,37.9-15.1c28.4-9.7,58.2-14.6,88.4-14.6c25,0,49.9,3.4,74,10.1h2.8c23.9-6.1,48.4-9.1,73.1-9.1
			c30.2,0,60.1,4.6,88.9,13.6l0.4,0.1l59.4,24.2l0.2,0.1c25.8,11.8,53,21.1,81,27.5c12.7,2.8,25.9,4.3,39,4.3
			c27.2,0,54.4-6.3,78.8-18.2l6.4-3.1l1,1l1.4-0.4l1.9,0.2c3.3,0.3,6.4,1.8,8.8,4.2l7.2,7.2l-7.3,7.1
			c-27.4,26.6-61.3,46.4-97.9,57.2l-0.3,0.1c-17.4,4.6-35.3,7-53.2,7c-8,0-16.1-0.5-24.1-1.4l-0.2,0c-38.6-5.2-76.1-19.6-108.6-41.7
			l-56.2-37.4c-13.9-8.9-29.9-13.6-46.3-13.6c-0.2,0-0.4,0-0.6,0c28.3,14.8,55.5,32.3,81.2,52.1l0.2,0.2l65.2,57.3l-42.8,36.6
			L1122.4,1566.6z"/>
		<path class="st3" d="M1432,1481.1c1,0.1,2,0.6,2.7,1.3c-26.4,25.6-58.6,44.4-93.8,54.8c-24,6.4-48.9,8.2-73.5,5.3
			c-37.4-5-73.1-18.8-104.3-40.1l-56.3-37.5c-21-13.5-46.4-18.3-70.8-13.3c-13.4,1.3-4.1,8-1.4,9.3c33.6,16.2,65.4,36,94.9,58.8
			l56.3,49.5l-26.7,22.8l-29.4-32.2c-36.1-37.5-77.6-69.5-123-94.9c-3.6-2.6-8.4-2.6-12,0c-45.4,25.5-86.9,57.4-123,94.9l-29.5,32.2
			l-26.7-22.8c0,0,36.2-34.8,56.3-49.5c29.6-22.9,61.5-42.6,95.2-58.8c1.3-1.3,12-8-1.4-9.3c-24.4-5-49.8-0.3-70.8,13.2l-56.3,37.5
			c-31.2,21.3-66.9,35-104.3,40.1c-24.6,2.9-49.6,1.1-73.5-5.3c-35.7-9.4-68.1-28.3-93.8-54.8c0-1.3,0-1.3,1.3-1.3l5.4,2.7
			c38.6,18.8,82.4,23.9,124.3,14.7c28.5-7.2,56.3-17.1,82.9-29.4c20-8,38.8-17.3,58.8-24c51-17.4,106-18.7,157.8-4h5.4
			c51.9-13.4,106.6-12,157.8,4l58.8,24c26.6,12.2,54.3,21.6,82.9,28.2c41.9,9.3,85.8,4.2,124.4-14.7l0.1,0.1L1432,1481.1z"/>
		<path class="st2" d="M1619.8,736.8c-3.1,0-6-1.4-8.3-3.8l-0.1-0.1l-0.1-0.2c-19.1-22.3-40.3-43.5-63.1-63
			c-5.2-4.4-10.7-8.9-16-13.3c-12.5-10.4-25.5-21.1-37.8-32.5l-0.3-0.3l-0.3-0.3c-22-24-37.2-53.3-43.9-84.9l-0.2-1v-9.2l2.9-2.9
			c2.2-2.2,5.2-3.5,8.4-3.5c3.2,0,6.1,1.2,8.4,3.5l0.6,0.6l7,9.9c12.3,15.6,27.1,28.7,43.8,38.9c18.7,10.5,35.9,23.1,51.4,37.5
			l-3.2-11.7c-2.8-10.3-4.9-22.1-7-33.4c-3-16.7-6.1-34-11.4-46.7l-0.1-0.2c-5.1-13-12.9-24.4-22.9-33.9l-10.5-9.8l6-3l-1.3-14.7
			l16.2,8.4c0.3,0.2,1,0.4,1.7,0.5c1.6,0.4,3.8,1.1,5.9,2.6c33.2,17.5,59.2,46.2,73.3,80.9l0.1,0.2c8.4,21.7,12.6,44.6,12.5,67.8
			l0,21.6l-1.3,64.1v21.3C1630.1,732.2,1625.6,736.8,1619.8,736.8z"/>
		<path class="st3" d="M1534.8,478.8c-0.8-0.7-1.3-1.6-1.4-2.7c2.7,1.4,5.4,1.4,6.7,2.7c31.5,16.3,56.2,43.3,69.5,76.2
			c7.9,20.5,11.9,42.2,11.8,64.2v21.4l-1.3,64.2v21.4c0,1.4-1.3,0-1.3,0c-19.7-23-41.2-44.4-64.2-64.1
			c-17.4-14.7-36.1-29.4-53.5-45.5c-20.7-22.6-35.1-50.3-41.5-80.2v-4l0,0c0.7-0.7,1.9-0.7,2.6,0l0,0l6.7,9.4
			c13,16.5,28.8,30.6,46.8,41.5c27.5,15.5,52,35.8,72.3,60c1.3,1.3,2.7,0,2.7-1.4l-12.1-44.1c-6.8-25-9.4-58.6-18.8-81.3
			c-5.6-14.2-14.2-27-25.4-37.5L1534.8,478.8z"/>
		<path class="st2" d="M615.3,1388.6c-24.7-5.2-49.6-11.8-73.7-18.1l-2.3-0.6c-44.4-5.9-86.5-23.7-121.7-51.3
			c-37-26.4-67.6-61.8-88.5-102.3l-0.1-0.3c-5.1-10.6-9.8-21.8-13.8-33.1l-4.8-13.4h20.3l3,3.6c18.4,22.3,40.1,41.4,64.5,56.7
			l0.3,0.2c21.1,14.3,43.4,26.6,66.3,36.5c18.3,7.4,35.9,16.4,52.5,26.7c-16.3-31.7-23.9-63.8-27.4-88.1l-0.1-0.4l0-0.4
			c-2.2-29.8-7-59.3-14.5-87.8l-0.3-1.2v-32.3l17.8,22c28.6,35.3,50.7,75,65.9,118l24.2,68.4c9.6,28.9,25.9,55.7,47.1,77.4l5.5,5.5
			v15.5h-8v1.2L615.3,1388.6z"/>
		<path class="st3" d="M541.2,1360c-42.9-5.6-83.6-22.7-117.6-49.5c-36-25.7-65.3-59.6-85.6-98.9c-5-10.4-9.5-21.2-13.4-32.1h1.4
			c19,23,41.6,42.9,66.9,58.8c21.5,14.6,44.3,27.2,68.1,37.5c30.3,12.3,58.7,28.9,84.2,49.5l5.3,4c1.4,1.4,1.4,0,1.4-1.3
			s-40.1-41.5-52.1-124.3c-2.2-30.3-7.1-60.2-14.8-89.6v-2.7c27.8,34.4,49.5,73.3,64.2,115l24.1,68.2c10.1,30.5,27,58.3,49.5,81.3
			l2.6,2.6v1.4c-4,0-5.3-1.4-8-1.4v0.3C592,1373.4,566.7,1366.7,541.2,1360z"/>
		<path class="st2" d="M1510.2,1248.8l1.1-2.2c16.3-31.4,19-68.8,21.6-105.1l0.1-0.8c1.4-16.9,0.5-37.1-0.4-56.6
			c-0.8-16.5-1.6-33.6-0.9-48.6l0-0.3l0-0.3c2.6-26.5,8.1-53,16.1-78.7c0.3-1.5,0.8-2.8,1.2-3.7v-22.3l20.9,20.9l0.4,3.5
			c2.2,22,7.7,42.8,12.9,63c3.8,14.6,7.4,28.3,9.7,42l0,0.2c3.8,26.2,3.7,53.1,0,79.6c20.4-24.6,42.1-48.2,64.8-70.4l0.1-0.1
			c26.7-25.4,47.1-57.2,58.9-92.2l5.6,1.9l-3.5-5.7c2.1-2.1,4.8-3.5,7.8-4.1l12-2.4v17.6c0.5,52.5-15.3,103.1-45.6,146.2
			c-23.4,33-52.7,60.7-87.1,82.5l-95.6,59V1248.8z"/>
		<path class="st3" d="M1725.8,980.2c0.7-0.7,1.7-1.2,2.7-1.4v5.4c0.5,50.2-14.8,99.3-43.8,140.4c-22.6,31.8-51.3,58.9-84.3,79.8
			l-80.2,49.5v-2.7c17.3-33.4,20-72.1,22.7-109.6c2.7-32.1-2.7-73.5-1.3-105.6c2.6-26.3,8-52.3,16-77.5c0-1.4,1.4-2.7,1.4-4l1.3,1.3
			c3.9,38.8,17.4,73.6,22.7,105.6c5.5,38,2.7,76.8-8,113.7c-1.3,1.3,1.4,2.6,1.4,1.3c26.9-35.5,56.4-69,88.2-100.1
			c28-26.6,49.1-59.6,61.5-96.2L1725.8,980.2z"/>
		<path class="st2" d="M1364.5,1389.7V1374l5.7-5.5c21.6-21.5,37.8-48.2,47-77.2l0.1-0.3l24.1-68.2c15.1-42.9,37.3-82.6,65.9-118
			l17.8-22v32.2l-0.3,1.2c-7,28.8-11.4,58.4-13.1,87.8l0,0.4l-0.1,0.4c-3.5,24.8-11.2,57.5-27.6,89.6c16.7-10.4,34.3-19.3,52.5-26.7
			c23.4-10.2,45.7-22.5,66.4-36.5l0.3-0.2c23.4-14.8,44.3-32.9,62.2-54v-0.5l2.7-2.9c2.4-2.6,5.5-4.1,8.6-4.1c4.1,0,7.8,2.5,9.4,6.2
			c1.5,3.7,0.9,7.4-2,11.1c-3.9,10.7-8.3,21.2-13.2,31.3l-0.1,0.1c-20.3,40.5-50.5,75.9-87.2,102.5c-35.8,26.4-77.9,44.1-121.8,51.3
			l-78.3,16.2h-0.9c-0.3,0-1,0.2-1.5,0.4c-1.6,0.4-3.9,1-6.6,1H1364.5z"/>
		<path class="st3" d="M1675.3,1181.8c-3.9,10.9-8.4,21.7-13.4,32.1c-19.7,39.3-48.6,73.2-84.2,98.9
			c-34.7,25.6-75.1,42.6-117.7,49.5l-77.5,16c-2.7,0-5.3,1.4-8,1.4v-1.4l2.7-2.6c22.8-22.7,39.8-50.6,49.5-81.3l24.1-68.2
			c14.7-41.7,36.4-80.6,64.2-115v2.7c-7.1,29.4-11.6,59.4-13.4,89.6c-12,84.2-52.2,124.3-52.2,125.6s0,1.4,1.4,1.4l5.3-4
			c25.5-20.6,53.9-37.3,84.2-49.5c23.9-10.4,46.7-22.9,68.2-37.5c25.3-16,47.8-35.8,66.9-58.8v-0.2
			C1676.6,1179.2,1677.9,1179.2,1675.3,1181.8z"/>
		<path class="st2" d="M646,1467.6c-3.5,0.1-7,0.2-10.5,0.2c-31.2,0-62.1-4.8-91.9-14.2l-0.3-0.1l-0.3-0.1
			c-44.9-17.3-83.3-47.1-111.2-86.3l-11.2-15.8h25.4l2.7,2c16.2,12.3,34.1,21.7,53.2,27.9c27.9,8.1,56.6,12.5,85.4,12.9l0.2,0
			c24.9,0.7,50,2.3,74.9,4.7c-17.8-14.4-32-33-41.5-54.6c-4.9-9.6-10.9-22.4-16.8-34.7c-8-16.9-17.2-36-20-40.2l-1.7-2.5v-27.4
			l74.2,63.9l62.4,60.1c27.1,22.4,59.4,39,93.6,48.3h0.1c6.2,0,11.3,5.1,11.3,11.3v10h-10.1l-70.8,17.1c-30.4,9.2-62,15.2-93.9,17.7
			l-2.8,0.2L646,1467.6z"/>
		<path class="st3" d="M546.6,1444c-42.9-16.5-80-45.3-106.6-82.8h2.7c17,12.9,36,22.9,56.3,29.5c28.7,8.4,58.4,12.9,88.2,13.3
			c38.5,1.1,76.9,4.2,115,9.3c2.7,0,4,0,2.7-1.3c-33.6-13.2-60.5-39.2-75-72.2c-12.1-24-32.2-68.2-37.5-76.2v-2.6l57.5,49.5
			l62.5,60.2c28.9,23.9,62.7,41.2,98.9,50.8h1.4c0.7,0,1.3,0.6,1.3,1.3l0,0h-1.3l-72.2,17.4c-30,9.1-60.8,14.9-92.1,17.4l-0.2-0.1
			C613.8,1459,579.4,1454.4,546.6,1444z"/>
		<path class="st2" d="M1648.4,918c-5.4,0-9.9-3.8-11-8.9c-11.6-34.4-28.6-66.8-50.5-96.4l-3.8-5c-18.9-22.3-35.5-47.1-49.3-73.9
			l-0.2-0.3l-0.1-0.3c-7.1-16.6-16.9-48.2-20.6-60.2c-0.5-1.7-0.9-3-1.1-3.5l-4.3-13.1h23.1l3,4.4c12.9,19.1,28.4,36.3,46,51.2
			c21.4,15,39.8,34.8,53.5,57.4c0.1-24.2,2.4-48.4,6.8-72c6-31.3,5.6-63-1.1-94.4l-2.7-8l-1.8-7.4l0.2-1.7c0.3-3.3,1.8-6.4,4.2-8.8
			l7.8-7.8l7,8.6c36.1,44.4,56.1,123,47.6,186.8l0,0.3l-0.1,0.3c-5.2,25.4-12,51-20.3,76.1l-25.1,76.4H1648.4z"/>
		<path class="st3" d="M1628.4,781.2l5.5,11.8l8,21.5l1.3,2.4c1.3,0,2.6,1.2,2.6,0s-2.6-34.8-2.6-38.8c-0.5-26.4,1.7-52.9,6.6-78.8
			c6.3-32.7,5.8-66.4-1.3-98.9l-2.7-8.1l-1.3-5.3c0.1-1,0.6-2,1.3-2.7c34.8,42.8,53.5,119,45.4,179.2c-5.2,25.4-11.9,50.4-20,75
			l-22.8,69.5c-0.7,0-1.3-0.6-1.3-1.3l0,0c-12-35.9-29.7-69.6-52.2-100l-4-5.3c-18.8-22.1-34.9-46.4-48.2-72.2
			c-8-18.7-20.1-58.8-21.4-62.8h4c13.5,20,29.7,38,48.2,53.5C1596.3,735.8,1615,756.8,1628.4,781.2z"/>
		<path class="st2" d="M396.8,1213.4L396.8,1213.4c-33.8-21.9-62.6-49.8-85.6-82.9c-30.2-42.9-46.1-93.5-45.9-146
			c0-0.2-0.1-0.7-0.2-1.1c-0.4-2-1.3-6.6,2-10.6c2-2.4,5-3.8,8.2-3.8h0.5l0.5,0c3.5,0.4,6.7,2,9.1,4.8l1.3,1.5l0.6,1.9
			c11.8,34.4,32.2,65.8,58.9,90.8l0.1,0.1c22.8,21.9,44.5,45.2,64.7,69.8c-3.7-26-3.7-52.4,0-78.8l0-0.3c2.3-13.4,6-27,9.9-41.3
			c0.9-3.3,1.8-6.6,2.7-9.9c4.2-15.7,8.7-34.3,10.1-53.4l0.3-3.5l21-22.6v23.9c0.4,0.9,0.9,2,1.1,3.5c8,26.2,13.4,53.2,15.9,80.3
			l0,0.3l0,0.3c0.6,14.8-0.2,31.4-0.9,47.5c-0.9,19.6-1.9,39.9-0.4,57.7l0,0.1c2.5,35.7,5,72.7,21.7,105.8l1.3,2.6l-0.3,2.9
			c-0.3,3.3-1.8,6.4-4.2,8.8l-5.6,5.6L396.8,1213.4z"/>
		<path class="st3" d="M319.5,1124.8c-28.9-41.1-44.3-90.2-44.1-140.4c0-2.7-1.4-5.4,0-5.4c1,0.1,1.9,0.6,2.6,1.4
			c12.4,36.2,33.6,68.8,61.5,94.9c32.2,30.8,61.7,64.3,88.2,100.1c0,1.3,2.7,0,1.3-1.4c-10.6-36.9-13.3-75.6-8-113.6
			c2.7-16,7.7-32.8,12.4-50.3s9-35.9,10.4-55.3l1.3-1.4c0,1.4,1.3,2.7,1.3,4c8,25.8,13.3,52.3,15.8,79.1c1.3,32.1-4,72.2-1.3,105.6
			c2.6,37.5,5.3,74.9,22.7,109.6c-0.1,1-0.6,2-1.3,2.7l-80.2-49.5l0.2,0.1C369.8,1184,341.6,1156.7,319.5,1124.8z"/>
		<path class="st2" d="M1348.4,1016.5c-21.4,0-40.1-3-57-9.2c-21-7.5-39.9-20.3-54.4-37.2c-52.5-60.5-103.9-123.5-153.7-184.5
			c-14.7-18-29.8-36.6-44.8-54.8c-24.5-30-44.8-54.9-63.8-78.4l-0.1-0.1l-0.1-0.1c-0.1-0.2-0.3-0.3-0.4-0.5
			c-1.4-1.6-4.1-4.7-4.9-9.9l-1.6-10.1l10.2-1.4c14.1-1.9,27-2.8,39.3-2.8c54.1,0,95.4,18.6,126.2,56.8
			c67.5,83.6,134.8,166,199.9,244.8c3.8,4.6,7.6,9.1,11.4,13.7c12.6,15.1,25.6,30.8,37.7,47c0.6,0.8,1.1,1.5,1.6,2.2
			c1.1,1.5,2.2,3.1,3.4,4.7l7.7,10.1l-11.7,5.1c-5.7,2.5-11.1,2.8-15.5,3c-1.2,0.1-2.3,0.1-3.3,0.2l-0.1,0
			C1364.7,1016.1,1356.3,1016.5,1348.4,1016.5z"/>
		<path class="st4" d="M978.9,640.2c60.6-8.1,115.8,0,156.4,50.4c66.2,82,132.8,163.6,200,244.9c16.4,19.9,33.3,39.5,48.7,60.3
			c1.6,2.2,3.2,4.5,5.1,7c-5.3,2.3-10.7,2-15.8,2.5c-26.6,2.3-53,1.9-78.5-7.4c-19.4-6.9-36.8-18.7-50.3-34.3
			c-67.9-78.2-132.6-159-198.3-239.1c-21.3-26-42.6-52.1-63.8-78.3C981.2,644.6,979.4,643.3,978.9,640.2z"/>
		<path class="st2" d="M825.4,1015.4c-13,0-24.9-1.1-36.4-3.4c-27.2-5.3-50.3-18.6-70.8-40.5c-27-29-52.6-59.8-77.4-89.6
			c-11.5-13.8-23.5-28.1-35.3-42.1c-7.1-8.3-4.1-15.6-0.4-20.2c12.1-15.2,24.2-30.7,36-45.7c26.6-34,54-69.1,82.8-102.4
			c21.7-25.2,50.3-39,87.4-42.1c6.4-0.6,13.1-0.9,20.2-0.9c15.2,0,30.7,1.4,43.8,2.7l19,1.9l-12.4,14.5
			c-11,12.9-21.1,24.8-31.2,36.7c-40.4,47.4-81.4,95.5-121,141.9c48.8,55.9,97.1,111.4,143.4,164.9c0.6,0.7,1.2,1.4,1.7,2.1
			c0.4,0.5,0.8,1,1.3,1.5l8.5,9.9l-11.7,5.6c-5.9,2.9-11.7,3.2-16.3,3.4c-1.2,0.1-2.3,0.1-3.3,0.2
			C843.2,1014.9,834.1,1015.4,825.4,1015.4z"/>
		<path class="st3" d="M874.2,641.1c-11,12.9-21.1,24.8-31.2,36.7c-40.7,47.8-81.4,95.5-122.1,143.2c-3.7,4.3-3.4,6.6,0.2,10.7
			c48.2,55.2,96.4,110.6,144.4,166c0.9,1,1.7,2.1,2.9,3.5c-5.4,2.6-11,2.2-16.2,2.7c-20.5,2.1-40.9,2.3-61.3-1.7
			c-26.1-5.1-47.4-18.2-65.4-37.5c-39.3-42.3-75.1-87.5-112.5-131.3c-2.4-2.8-2.6-4.5-0.2-7.5c39.4-49.4,77.2-100,118.6-147.9
			c21.3-24.7,48.9-36,80.7-38.7C832.2,637.5,852.4,638.9,874.2,641.1z"/>
		<path class="st2" d="M1187,1016.2c-55.4,0-101.5-22.5-137.2-66.8c-34.9-43.3-71.7-86.4-107.4-128c-14.9-17.4-30.3-35.4-45.4-53.2
			c-7.3-8.6-14.4-17.3-21.9-26.5c-2-2.4-4-4.9-6-7.4l-12.3-15l19.4-1.3l5.9-0.4c13.5-0.9,26.2-1.8,39.1-1.8c20.9,0,38,2.4,53.8,7.6
			c18.7,6.1,34.8,16.8,49.3,32.6c50.4,55.4,99.7,113.3,147.3,169.4c18.3,21.5,37.2,43.8,55.9,65.5c1,1.2,1.9,2.3,2.7,3.4
			c0.4,0.5,0.8,1.1,1.3,1.7l8.4,10.6l-12.7,4.9c-7.3,2.8-14.2,3.3-20.3,3.6c-1,0.1-2.1,0.1-3.1,0.2
			C1198.2,1016,1192.5,1016.2,1187,1016.2z"/>
		<path class="st5" d="M876.9,728.2c33.1-2.2,64.4-5.1,95,4.9c17.8,5.8,32.4,16,45,29.8c69.7,76.5,135.7,156.3,203.1,234.8
			c1.2,1.3,2.2,2.8,3.7,4.7c-7,2.7-13.9,2.7-20.6,3.2c-59.4,4.7-108.3-16.2-145.5-62.4c-49.6-61.6-101.8-121-152.9-181.3
			C895.6,751.2,886.8,740.3,876.9,728.2z"/>
		<path class="st2" d="M1016,1016.7c-2.1,0-4.2,0-6.4-0.1c-26.6-0.7-48.8-6.5-67.7-17.8c-14.4-8.6-25.6-20-36.5-31.1
			c-1.5-1.5-2.9-3-4.4-4.4c-25.6-26-50.6-53.3-74.7-79.7c-13-14.3-26.5-29.1-39.9-43.4l-0.1-0.1c-0.8-0.9-1.4-1.7-2.1-2.6
			c-0.3-0.4-0.7-0.9-1.2-1.5l-9.6-11.9l14.7-4.1c8.2-2.3,16.2-2.5,23.3-2.7c1.8,0,3.7-0.1,5.5-0.2c5.3-0.2,10.1-0.3,14.8-0.3
			c30.6,0,54.9,5,76.5,15.8c20.1,10,34.6,25.7,48.6,40.8l0.4,0.4c23.4,25.3,46.6,51.5,68.9,77c12.3,13.9,24.9,28.3,37.5,42.4
			l0.3,0.3l0.3,0.3c0.2,0.3,0.4,0.6,0.7,0.9c0.4,0.6,0.9,1.2,1.5,2l10.6,13.2l-16.7,2.9C1045.6,1015.4,1030.8,1016.7,1016,1016.7z"
			/>
		<path class="st6" d="M1058.5,1003c-16.1,2.8-32.3,4-48.6,3.6c-22.2-0.6-43.5-4.9-62.8-16.4c-15.1-9-26.8-21.8-38.9-34
			c-39.3-39.9-76.2-82-114.4-122.9c-0.9-1-1.7-2.1-3-3.7c9-2.5,17.9-2.1,26.6-2.5c29.8-1.3,59,0.8,86.3,14.4
			c18.6,9.3,32.3,24.2,46.1,39.1c36.2,39,70.8,79.5,106.3,119.2C1056.7,1000.6,1057.3,1001.5,1058.5,1003z"/>
		<polygon class="st2" points="660.3,1221.9 643,1192.6 643,1221.9 577.9,1221.9 577.9,1082.2 642.9,1082.2 642.9,1096.6 
			654.2,1082.2 731,1082.2 681.2,1142.6 731.7,1221.9 		"/>
		<path class="st3" d="M587.9,1211.9v-119.7h45v33.4l26.2-33.4h50.7l-40.9,49.6l44.6,70.1H666l-24.5-41.6l-8.5,10.4v31.2H587.9z"/>
		<polygon class="st2" points="710.1,1221.9 710.1,1082.2 769,1082.2 787.1,1118.9 805.1,1082.2 864,1082.2 864,1221.9 799,1221.9 
			799,1201.5 775,1201.5 775,1222 		"/>
		<path class="st3" d="M720.1,1211.9v-119.7h42.7l24.3,49.4l24.2-49.4H854v119.7h-45v-42l-10.6,21.6h-22.8L765,1170v42L720.1,1211.9
			z"/>
		<path class="st2" d="M934.9,1223.8c-25.8,0-46-6.1-59.9-18c-14.3-12.3-21.6-30.4-21.6-53.7c0-23.2,7.2-41.3,21.3-53.6
			c13.8-12,33.9-18.1,59.7-18.1c0.5,0,1,0,1.5,0c6.7,0,13.7,0.6,20.6,1.9c6.5,1.2,12.9,3,19.1,5.3l6.5,2.4v61.9l-14.2-6.7
			c-9.7-4.5-20-6.9-30.6-6.9c-6.6,0-11.6,1.2-15.1,3.4c-2.6,1.7-3.1,6.6-3.1,10.4c0,3.7,0.6,8.6,3.3,10.3c3.5,2.3,8.7,3.5,15.3,3.5
			c10.4,0,21-2.4,30.6-6.9l14.2-6.7v62l-6.7,2.3c-6.4,2.2-12.7,3.9-18.9,5.1C949.7,1223.1,942.3,1223.8,934.9,1223.8z"/>
		<path class="st3" d="M934.9,1213.8c-23.5,0-41.3-5.2-53.4-15.6c-12.1-10.4-18.1-25.8-18.1-46.1c0-20.3,6-35.7,17.9-46.1
			c12-10.4,29.7-15.6,53.2-15.6c6.8-0.1,13.6,0.5,20.3,1.7c5.9,1.1,11.7,2.7,17.4,4.8v39.2c-10.9-5.1-22.7-7.8-34.8-7.8
			c-8.7,0-15.5,1.7-20.6,5.1s-7.6,9.6-7.6,18.7c0,9,2.6,15.3,7.8,18.7c5.2,3.4,12.1,5.1,20.8,5.1c12,0,23.9-2.7,34.8-7.8v39.2
			c-5.7,2-11.5,3.6-17.4,4.7C948.5,1213.2,941.7,1213.8,934.9,1213.8z"/>
		<polygon class="st2" points="1097,1221.9 1097,1201.5 1072.9,1201.5 1072.9,1221.9 1008.1,1221.9 1008.1,1082.2 1067,1082.2 
			1085.1,1118.9 1103.1,1082.2 1162,1082.2 1162,1221.9 		"/>
		<path class="st4" d="M1018.1,1211.9v-119.7h42.7l24.3,49.4l24.2-49.4h42.7v119.7h-45v-42l-10.6,21.6h-22.9l-10.6-21.6v42H1018.1z"
			/>
		<path class="st2" d="M1222.5,1223.8c-11.3,0-22.3-2.1-32.7-6.3c-10.2-4-19.2-10.9-25.8-19.8l-0.1-0.1c-6.5-9-9.8-20-9.8-32.9
			v-82.5h65v76.7c0,6.7,1.6,6.7,4.9,6.7s4.9,0,4.9-6.7v-76.7h65v82.5c0,12.8-3.3,23.9-9.8,32.9c-6.6,9.1-15.6,16-26,20
			c-10.6,4.2-21.8,6.3-33.3,6.3l-0.7,0C1223.6,1223.8,1223,1223.8,1222.5,1223.8z"/>
		<path class="st4" d="M1224,1213.8c-10.4,0.2-20.8-1.7-30.5-5.6c-8.6-3.4-16-9.1-21.5-16.5c-5.3-7.3-7.9-16.3-7.9-27v-72.5h45v66.7
			c0,11.1,5,16.7,14.9,16.7s14.9-5.6,14.9-16.7v-66.7h45v72.5c0,10.7-2.6,19.7-7.9,27c-5.4,7.4-12.9,13.2-21.5,16.5
			C1244.8,1212,1234.4,1213.9,1224,1213.8z"/>
		<polygon class="st2" points="1368.9,1221.9 1350.8,1196.4 1350.8,1221.9 1285.9,1221.9 1285.9,1082.2 1338.7,1082.2 1357,1107.8 
			1357,1082.2 1422,1082.2 1422,1221.9 		"/>
		<path class="st4" d="M1295.9,1211.9v-119.7h37.7l33.4,46.8v-46.8h45v119.7h-37.9l-33.3-46.8v46.8H1295.9z"/>
	</g>
</g>
</svg>
