<?xml version="1.0" encoding="utf-8"?>
<!-- Generator: Adobe Illustrator 24.3.0, SVG Export Plug-In . SVG Version: 6.00 Build 0)  -->
<svg version="1.1" id="Layer_1" xmlns="http://www.w3.org/2000/svg" xmlns:xlink="http://www.w3.org/1999/xlink" x="0px" y="0px"
	 viewBox="0 0 2000 2000" style="enable-background:new 0 0 2000 2000;" xml:space="preserve">
<style type="text/css">
	.st0{fill:#004C98;}
	.st1{fill:#0088AC;}
	.st2{fill:#F6941F;}
	.st3{fill:#00ABC5;}
</style>
<path class="st0" d="M1560.3,1361.3c-45.9,67.3-124.9,104.2-205.9,96.2c-32.2-2.4-64-8.2-94.9-17.4l-71.7-17.3l1.3-1.3h1.3
	c36-9.3,69.4-26.7,97.6-50.8l62.5-61.5c17.4-16.1,54.8-48.1,57.5-49.5v2.6l-37.5,76.2c-14.9,32.8-41.7,58.6-75,72.2
	c-1.3,1.3,0,1.3,2.7,1.3c38.1-5.1,76.5-8.3,115-9.4c29.9-0.4,59.6-4.9,88.2-13.3c20.3-6.6,39.3-16.5,56.3-29.4l-0.1-0.1
	C1559,1359.9,1560.3,1359.9,1560.3,1361.3z"/>
<path class="st0" d="M1397.2,416.2l-4-2.7v-2.7c33.7,8.3,65.2,23.8,92.3,45.5c46.7,37.5,64.2,113.7,65.5,124.4
	c-9.3-8-45.5-36.1-57.5-48.2c-18.1-17-33.9-36.3-46.8-57.5C1432.5,453.7,1415.8,434,1397.2,416.2z"/>
<path class="st0" d="M310,762.3c-8.1-58.8,12-136.4,46.8-179.2c1.3,1.3,1.3,1.3,1.3,2.6s-1.3,4.1-1.3,5.4c-1.5,2.4-2.4,5.2-2.7,8
	c-7.1,32.5-7.6,66.2-1.4,98.9c5.4,26.1,8.2,52.7,8.1,79.3c0,5.3-2.7,36.1-2.7,38.8s1.4,0,1.4,0l8-22.8c1.3-4,4-8,5.3-12
	c13.6-25.1,32.9-46.6,56.3-62.8c18.5-15.5,34.7-33.5,48.2-53.5h4c-1.3,4-13.4,44.1-21.4,62.8c-13.5,25.6-29.6,49.8-48.1,72.2l-4,5.4
	c-22,30.7-39.6,64.4-52.1,100c0,0.7-0.6,1.3-1.3,1.3l0,0l-22.7-69.5l-0.2,0.1C323.3,813,316.6,787.6,310,762.3z"/>
<path class="st0" d="M379.9,641.8v-22.7c-0.8-22,3.3-43.9,12.1-64.1c13.7-33.4,38.8-60.9,70.9-77.5c2.7-1.4,4-2.7,6.7-2.7v2.9
	c-10.9,10.7-19.5,23.5-25.4,37.5c-9.4,22.5-12.1,55.9-18.8,81.3l-12,44.1c-1.4,2.7,0,2.7,1.3,1.3c18.8-25.4,40.1-40.1,72.2-60.2
	c17.6-10.9,33-25,45.5-41.5l6.7-9.4h1.3v4c-6.5,30.1-21,57.8-41.9,80.4L445,660.8c-22.9,19.8-44,41.7-62.9,65.5h-1.3v-20l-1.4-64.2
	L379.9,641.8z"/>
<path class="st0" d="M1648.6,966.8c17.4-61.5,61.5-100.3,61.5-191.2l1.3-1.4c2.8,5.1,5.1,10.5,6.7,16.1
	c38.7,125.7-41.6,216.6-56.3,235.3c-14.7,18.7-38.8,42.8-50.8,60.2c-1.3-1.3-1.3-1.3-1.3-4c2.9-33.5-1.6-67.2-13.3-98.7
	c-19.9-50.7-33.3-103.7-40.1-157.8c-1-7.1-1.5-14.2-1.4-21.4c1,0.1,2,0.6,2.7,1.3c10.5,22.2,22.5,43.7,36.1,64.2
	c20.1,31.8,42.8,62.5,45.5,100c1.1,10.7,1.6,21.4,1.4,32.1h0.1C1642.5,989.8,1645.2,978.2,1648.6,966.8z"/>
<path class="st0" d="M450.3,579.1c1.3-10.7,17.3-86.9,66.9-125.6c26.7-22.2,58.3-37.8,92.2-45.4v2.6l-4,4.1
	c-19,17.3-35.7,37.1-49.5,58.8c-13.4,20.9-29.1,40.2-46.8,57.5l-58.3,48L450.3,579.1z"/>
<path class="st0" d="M338.4,1028.6c-16.2-18.8-95.1-109.7-56.3-235.4c2.6-5.3,4-10.7,6.6-16l1.4,1.3c0,91.2,42.7,129.7,61.5,191.2
	l9.4,32.1v1.3c0.7,0,1.3-0.6,1.3-1.3c-1.3-10.7-1.3-21.4,0-32.1c2.7-37.5,24.1-69.5,45.5-98.9c13.6-20.5,25.7-41.9,36.1-64.2
	c0-1.3,0-1.3,1.3-1.3c0,2.6-1.3,14.7-1.3,21.4c-7.8,53.9-21.3,106.7-40.2,157.8c-12.9,31.3-17.9,65.2-14.7,98.9c0,2.6,0,2.7-1.2,3.9
	C375.9,1069.9,354.6,1047.3,338.4,1028.6z"/>
<path class="st0" d="M1432,1481.1c1,0.1,2,0.6,2.7,1.3c-26.4,25.6-58.6,44.4-93.8,54.8c-24,6.4-48.9,8.2-73.5,5.3
	c-37.4-5-73.1-18.8-104.3-40.1l-56.3-37.5c-21-13.5-46.4-18.3-70.8-13.3c-13.4,1.3-4.1,8-1.4,9.3c33.6,16.2,65.4,36,94.9,58.8
	l56.3,49.5l-26.7,22.8l-29.4-32.2c-36.1-37.5-77.6-69.5-123-94.9c-3.6-2.6-8.4-2.6-12,0c-45.4,25.5-86.9,57.4-123,94.9l-29.5,32.2
	l-26.7-22.8c0,0,36.2-34.8,56.3-49.5c29.6-22.9,61.5-42.6,95.2-58.8c1.3-1.3,12-8-1.4-9.3c-24.4-5-49.8-0.3-70.8,13.2l-56.3,37.5
	c-31.2,21.3-66.9,35-104.3,40.1c-24.6,2.9-49.6,1.1-73.5-5.3c-35.7-9.4-68.1-28.3-93.8-54.8c0-1.3,0-1.3,1.3-1.3l5.4,2.7
	c38.6,18.8,82.4,23.9,124.3,14.7c28.5-7.2,56.3-17.1,82.9-29.4c20-8,38.8-17.3,58.8-24c51-17.4,106-18.7,157.8-4h5.4
	c51.9-13.4,106.6-12,157.8,4l58.8,24c26.6,12.2,54.3,21.6,82.9,28.2c41.9,9.3,85.8,4.2,124.4-14.7l0.1,0.1L1432,1481.1z"/>
<path class="st0" d="M1534.8,478.8c-0.8-0.7-1.3-1.6-1.4-2.7c2.7,1.4,5.4,1.4,6.7,2.7c31.5,16.3,56.2,43.3,69.5,76.2
	c7.9,20.5,11.9,42.2,11.8,64.2v21.4l-1.3,64.2v21.4c0,1.4-1.3,0-1.3,0c-19.7-23-41.2-44.4-64.2-64.1c-17.4-14.7-36.1-29.4-53.5-45.5
	c-20.7-22.6-35.1-50.3-41.5-80.2v-4l0,0c0.7-0.7,1.9-0.7,2.6,0c0,0,0,0,0,0l6.7,9.4c13,16.5,28.8,30.6,46.8,41.5
	c27.5,15.5,52,35.8,72.3,60c1.3,1.3,2.7,0,2.7-1.4l-12.1-44.1c-6.8-25-9.4-58.6-18.8-81.3c-5.6-14.2-14.2-27-25.4-37.5L1534.8,478.8
	z"/>
<path class="st0" d="M541.2,1360c-42.9-5.6-83.6-22.7-117.6-49.5c-36-25.7-65.3-59.6-85.6-98.9c-5-10.4-9.5-21.2-13.4-32.1h1.4
	c19,23,41.6,42.9,66.9,58.8c21.5,14.6,44.3,27.2,68.1,37.5c30.3,12.3,58.7,28.9,84.2,49.5l5.3,4c1.4,1.4,1.4,0,1.4-1.3
	s-40.1-41.5-52.1-124.3c-2.2-30.3-7.1-60.2-14.8-89.6v-2.7c27.8,34.4,49.5,73.3,64.2,115l24.1,68.2c10.1,30.5,27,58.3,49.5,81.3
	l2.6,2.6v1.4c-4,0-5.3-1.4-8-1.4v0.3C592,1373.4,566.7,1366.7,541.2,1360z"/>
<path class="st0" d="M1725.8,980.2c0.7-0.7,1.7-1.2,2.7-1.4v5.4c0.5,50.2-14.8,99.3-43.8,140.4c-22.6,31.8-51.3,58.9-84.3,79.8
	l-80.2,49.5v-2.7c17.3-33.4,20-72.1,22.7-109.6c2.7-32.1-2.7-73.5-1.3-105.6c2.6-26.3,8-52.3,16-77.5c0-1.4,1.4-2.7,1.4-4l1.3,1.3
	c3.9,38.8,17.4,73.6,22.7,105.6c5.5,38,2.7,76.8-8,113.7c-1.3,1.3,1.4,2.6,1.4,1.3c26.9-35.5,56.4-69,88.2-100.1
	c28-26.6,49.1-59.6,61.5-96.2L1725.8,980.2z"/>
<path class="st0" d="M1675.3,1181.8c-3.9,10.9-8.4,21.7-13.4,32.1c-19.7,39.3-48.6,73.2-84.2,98.9c-34.7,25.6-75.1,42.6-117.7,49.5
	l-77.5,16c-2.7,0-5.3,1.4-8,1.4v-1.4l2.7-2.6c22.8-22.7,39.8-50.6,49.5-81.3l24.1-68.2c14.7-41.7,36.4-80.6,64.2-115v2.7
	c-7.1,29.4-11.6,59.4-13.4,89.6c-12,84.2-52.2,124.3-52.2,125.6s0,1.4,1.4,1.4l5.3-4c25.5-20.6,53.9-37.3,84.2-49.5
	c23.9-10.4,46.7-22.9,68.2-37.5c25.3-16,47.8-35.8,66.9-58.8v-0.2C1676.6,1179.2,1677.9,1179.2,1675.3,1181.8z"/>
<path class="st0" d="M546.6,1444c-42.9-16.5-80-45.3-106.6-82.8h2.7c17,12.9,36,22.9,56.3,29.5c28.7,8.4,58.4,12.9,88.2,13.3
	c38.5,1.1,76.9,4.2,115,9.3c2.7,0,4,0,2.7-1.3c-33.6-13.2-60.5-39.2-75-72.2c-12.1-24-32.2-68.2-37.5-76.2v-2.6l57.5,49.5l62.5,60.2
	c28.9,23.9,62.7,41.2,98.9,50.8h1.4c0.7,0,1.3,0.6,1.3,1.3l0,0h-1.3l-72.2,17.4c-30,9.1-60.8,14.9-92.1,17.4l-0.2-0.1
	C613.8,1459,579.4,1454.4,546.6,1444z"/>
<path class="st0" d="M1628.4,781.2l5.5,11.8l8,21.5l1.3,2.4c1.3,0,2.6,1.2,2.6,0s-2.6-34.8-2.6-38.8c-0.5-26.4,1.7-52.9,6.6-78.8
	c6.3-32.7,5.8-66.4-1.3-98.9l-2.7-8.1l-1.3-5.3c0.1-1,0.6-2,1.3-2.7c34.8,42.8,53.5,119,45.4,179.2c-5.2,25.4-11.9,50.4-20,75
	l-22.8,69.5c-0.7,0-1.3-0.6-1.3-1.3l0,0c-12-35.9-29.7-69.6-52.2-100l-4-5.3c-18.8-22.1-34.9-46.4-48.2-72.2
	c-8-18.7-20.1-58.8-21.4-62.8h4c13.5,20,29.7,38,48.2,53.5C1596.3,735.8,1615,756.8,1628.4,781.2z"/>
<path class="st0" d="M319.5,1124.8c-28.9-41.1-44.3-90.2-44.1-140.4c0-2.7-1.4-5.4,0-5.4c1,0.1,1.9,0.6,2.6,1.4
	c12.4,36.2,33.6,68.8,61.5,94.9c32.2,30.8,61.7,64.3,88.2,100.1c0,1.3,2.7,0,1.3-1.4c-10.6-36.9-13.3-75.6-8-113.6
	c2.7-16,7.7-32.8,12.4-50.3s9-35.9,10.4-55.3l1.3-1.4c0,1.4,1.3,2.7,1.3,4c8,25.8,13.3,52.3,15.8,79.1c1.3,32.1-4,72.2-1.3,105.6
	c2.6,37.5,5.3,74.9,22.7,109.6c-0.1,1-0.6,2-1.3,2.7l-80.2-49.5l0.2,0.1C369.8,1184,341.6,1156.7,319.5,1124.8z"/>
<path class="st1" d="M978.9,640.2c60.6-8.1,115.8,0,156.4,50.4c66.2,82,132.8,163.6,200,244.9c16.4,19.9,33.3,39.5,48.7,60.3
	c1.6,2.2,3.2,4.5,5.1,7c-5.3,2.3-10.7,2-15.8,2.5c-26.6,2.3-53,1.9-78.5-7.4c-19.4-6.9-36.8-18.7-50.3-34.3
	c-67.9-78.2-132.6-159-198.3-239.1c-21.3-26-42.6-52.1-63.8-78.3C981.2,644.6,979.4,643.3,978.9,640.2z"/>
<path class="st0" d="M874.2,641.1c-11,12.9-21.1,24.8-31.2,36.7c-40.7,47.8-81.4,95.5-122.1,143.2c-3.7,4.3-3.4,6.6,0.2,10.7
	c48.2,55.2,96.4,110.6,144.4,166c0.9,1,1.7,2.1,2.9,3.5c-5.4,2.6-11,2.2-16.2,2.7c-20.5,2.1-40.9,2.3-61.3-1.7
	c-26.1-5.1-47.4-18.2-65.4-37.5c-39.3-42.3-75.1-87.5-112.5-131.3c-2.4-2.8-2.6-4.5-0.2-7.5c39.4-49.4,77.2-100,118.6-147.9
	c21.3-24.7,48.9-36,80.7-38.7C832.2,637.5,852.4,638.9,874.2,641.1z"/>
<path class="st2" d="M876.9,728.2c33.1-2.2,64.4-5.1,95,4.9c17.8,5.8,32.4,16,45,29.8c69.7,76.5,135.7,156.3,203.1,234.8
	c1.2,1.3,2.2,2.8,3.7,4.7c-7,2.7-13.9,2.7-20.6,3.2c-59.4,4.7-108.3-16.2-145.5-62.4c-49.6-61.6-101.8-121-152.9-181.3
	C895.6,751.2,886.8,740.3,876.9,728.2z"/>
<path class="st3" d="M1058.5,1003c-16.1,2.8-32.3,4-48.6,3.6c-22.2-0.6-43.5-4.9-62.8-16.4c-15.1-9-26.8-21.8-38.9-34
	c-39.3-39.9-76.2-82-114.4-122.9c-0.9-1-1.7-2.1-3-3.7c9-2.5,17.9-2.1,26.6-2.5c29.8-1.3,59,0.8,86.3,14.4
	c18.6,9.3,32.3,24.2,46.1,39.1c36.2,39,70.8,79.5,106.3,119.2C1056.7,1000.6,1057.3,1001.5,1058.5,1003z"/>
<path class="st0" d="M587.9,1211.9v-119.7h45v33.4l26.2-33.4h50.7l-40.9,49.6l44.6,70.1H666l-24.5-41.6l-8.5,10.4v31.2H587.9z"/>
<path class="st0" d="M720.1,1211.9v-119.7h42.7l24.3,49.4l24.2-49.4H854v119.7h-45v-42l-10.6,21.6h-22.8l-10.6-21.5v42L720.1,1211.9
	z"/>
<path class="st0" d="M934.9,1213.8c-23.5,0-41.3-5.2-53.4-15.6c-12.1-10.4-18.1-25.8-18.1-46.1c0-20.3,6-35.7,17.9-46.1
	c12-10.4,29.7-15.6,53.2-15.6c6.8-0.1,13.6,0.5,20.3,1.7c5.9,1.1,11.7,2.7,17.4,4.8v39.2c-10.9-5.1-22.7-7.8-34.8-7.8
	c-8.7,0-15.5,1.7-20.6,5.1c-5.1,3.4-7.6,9.6-7.6,18.7c0,9,2.6,15.3,7.8,18.7c5.2,3.4,12.1,5.1,20.8,5.1c12,0,23.9-2.7,34.8-7.8v39.2
	c-5.7,2-11.5,3.6-17.4,4.7C948.5,1213.2,941.7,1213.8,934.9,1213.8z"/>
<path class="st1" d="M1018.1,1211.9v-119.7h42.7l24.3,49.4l24.2-49.4h42.7v119.7h-45v-42l-10.6,21.6h-22.9l-10.6-21.6v42H1018.1z"/>
<path class="st1" d="M1224,1213.8c-10.4,0.2-20.8-1.7-30.5-5.6c-8.6-3.4-16-9.1-21.5-16.5c-5.3-7.3-7.9-16.3-7.9-27v-72.5h45v66.7
	c0,11.1,5,16.7,14.9,16.7c9.9,0,14.9-5.6,14.9-16.7v-66.7h45v72.5c0,10.7-2.6,19.7-7.9,27c-5.4,7.4-12.9,13.2-21.5,16.5
	C1244.8,1212,1234.4,1213.9,1224,1213.8z"/>
<path class="st1" d="M1295.9,1211.9v-119.7h37.7l33.4,46.8v-46.8h45v119.7h-37.9l-33.3-46.8v46.8H1295.9z"/>
</svg>
