<svg xmlns="http://www.w3.org/2000/svg" viewBox="0 0 2000 2000"><defs><style>.cls-1{fill:#fff;}.cls-2{fill:#004c98;}.cls-3{fill:#0088ac;}.cls-4{fill:#f6941f;}.cls-5{fill:#00abc5;}</style></defs><g id="Layer_2" data-name="Layer 2"><rect class="cls-1" width="2000" height="2000"/><path class="cls-2" d="M1560.32,1361.27a222.93,222.93,0,0,1-205.94,96.23,456.08,456.08,0,0,1-94.93-17.38l-71.65-17.32,1.31-1.33h1.32a244,244,0,0,0,97.62-50.82l62.52-61.49c17.38-16.06,54.84-48.13,57.46-49.46v2.63l-37.51,76.22a141.26,141.26,0,0,1-75,72.24c-1.31,1.32,0,1.32,2.68,1.32a1109.16,1109.16,0,0,1,115-9.38,329,329,0,0,0,88.23-13.33,188.09,188.09,0,0,0,56.3-29.45l-.08-.07C1559,1359.88,1560.32,1359.88,1560.32,1361.27Z"/><path class="cls-2" d="M1397.22,416.25l-4-2.69v-2.69a239.37,239.37,0,0,1,92.31,45.47c46.71,37.45,64.15,113.68,65.48,124.38-9.33-8-45.47-36.08-57.48-48.15a274.69,274.69,0,0,1-46.78-57.48A349,349,0,0,0,1397.22,416.25Z"/><path class="cls-2" d="M310,762.26c-8.06-58.84,12-136.39,46.77-179.18,1.32,1.33,1.32,1.27,1.32,2.63s-1.32,4.07-1.32,5.39a18.78,18.78,0,0,0-2.69,8A246.13,246.13,0,0,0,352.71,698a387.11,387.11,0,0,1,8.14,79.3c0,5.31-2.68,36.09-2.68,38.77s1.36,0,1.36,0l8-22.75c1.3-4,4-8,5.31-12a182.1,182.1,0,0,1,56.28-62.85A258.34,258.34,0,0,0,477.28,665h4c-1.31,4-13.38,44.08-21.4,62.85A420.24,420.24,0,0,1,411.76,800l-4,5.4a397.67,397.67,0,0,0-52.15,100,1.32,1.32,0,0,1-1.32,1.32l-22.7-69.55-.24.06C323.26,813,316.58,787.64,310,762.26Z"/><path class="cls-2" d="M379.86,641.81v-22.7A147.8,147.8,0,0,1,391.93,555a152.78,152.78,0,0,1,70.85-77.55c2.69-1.37,4-2.69,6.68-2.69v2.93a115.59,115.59,0,0,0-25.38,37.53c-9.38,22.52-12.07,55.9-18.77,81.3l-12,44.14c-1.36,2.69,0,2.69,1.33,1.31,18.76-25.38,40.14-40.08,72.23-60.15a168.3,168.3,0,0,0,45.45-41.46L539,531h1.3v4a171.94,171.94,0,0,1-41.89,80.42L445,660.82a488.14,488.14,0,0,0-62.85,65.47h-1.3v-20l-1.38-64.22Z"/><path class="cls-2" d="M1648.55,966.79c17.38-61.47,61.53-100.3,61.53-191.16l1.3-1.36a79.24,79.24,0,0,1,6.7,16.06c38.65,125.7-41.58,216.62-56.28,235.31S1623,1068.42,1611,1085.8c-1.31-1.3-1.31-1.3-1.31-4a226.94,226.94,0,0,0-13.33-98.67,654.74,654.74,0,0,1-40.07-157.76,136.9,136.9,0,0,1-1.39-21.4,4.6,4.6,0,0,1,2.69,1.31,506.43,506.43,0,0,0,36.09,64.17c20.06,31.83,42.84,62.53,45.47,100a249.29,249.29,0,0,1,1.36,32.1h.06A295.67,295.67,0,0,1,1648.55,966.79Z"/><path class="cls-2" d="M450.27,579.1c1.32-10.71,17.32-86.87,66.86-125.65A220.38,220.38,0,0,1,609.35,408v2.63l-4,4.07a291.68,291.68,0,0,0-49.48,58.78A326.69,326.69,0,0,1,509.05,531l-58.27,48Z"/><path class="cls-2" d="M338.4,1028.59c-16.2-18.77-95.11-109.69-56.27-235.39,2.62-5.32,4-10.69,6.61-16l1.38,1.3c0,91.19,42.71,129.71,61.47,191.24l9.39,32.08v1.3a1.3,1.3,0,0,0,1.3-1.3,132.43,132.43,0,0,1,0-32.08c2.7-37.47,24.08-69.54,45.47-98.94a494.82,494.82,0,0,0,36.15-64.21c0-1.32,0-1.32,1.3-1.32,0,2.62-1.3,14.69-1.3,21.39a778.58,778.58,0,0,1-40.16,157.78,208.08,208.08,0,0,0-14.7,98.92c0,2.62,0,2.69-1.24,3.93C375.85,1069.93,354.58,1047.33,338.4,1028.59Z"/><path class="cls-2" d="M1432,1481.05a4.62,4.62,0,0,1,2.68,1.32,227.53,227.53,0,0,1-93.79,54.84,195.22,195.22,0,0,1-73.53,5.31,242,242,0,0,1-104.26-40.08l-56.27-37.51A95.25,95.25,0,0,0,1036,1451.6c-13.4,1.32-4.08,8-1.39,9.32a532.84,532.84,0,0,1,94.93,58.84l56.28,49.46L1159.08,1592l-29.45-32.16a532.47,532.47,0,0,0-123-94.91,10.13,10.13,0,0,0-12,0,533,533,0,0,0-123,94.91L842.18,1592l-26.71-22.78s36.21-34.76,56.28-49.46a532.92,532.92,0,0,1,95.18-58.84c1.32-1.32,12-8-1.39-9.32a95.28,95.28,0,0,0-70.77,13.19l-56.3,37.53a242.38,242.38,0,0,1-104.29,40.08,195.07,195.07,0,0,1-73.54-5.32,202.34,202.34,0,0,1-93.81-54.83c0-1.32,0-1.32,1.33-1.32l5.37,2.68a190.49,190.49,0,0,0,124.32,14.7,470.84,470.84,0,0,0,82.92-29.45c20-8,38.75-17.32,58.78-24a264.55,264.55,0,0,1,157.76-4h5.38a287.58,287.58,0,0,1,157.78,4l58.84,24a426,426,0,0,0,82.86,28.15,189.39,189.39,0,0,0,124.38-14.7l.12.06Z"/><path class="cls-2" d="M1534.79,478.79a4.08,4.08,0,0,1-1.38-2.68c2.71,1.36,5.39,1.36,6.7,2.68A148.89,148.89,0,0,1,1609.65,555a176.23,176.23,0,0,1,11.81,64.15v21.39l-1.3,64.16v21.39c0,1.36-1.33,0-1.33,0A580.51,580.51,0,0,0,1554.62,662c-17.38-14.7-36.09-29.4-53.47-45.47a171.35,171.35,0,0,1-41.46-80.24v-4s0,0,0,0a1.86,1.86,0,0,1,2.65,0l6.69,9.36a174.61,174.61,0,0,0,46.77,41.46,262.38,262.38,0,0,1,72.3,60c1.3,1.3,2.69,0,2.69-1.39l-12.07-44.08c-6.76-25-9.39-58.6-18.77-81.3a103.25,103.25,0,0,0-25.38-37.51Z"/><path class="cls-2" d="M541.19,1360a241.65,241.65,0,0,1-117.63-49.46A277,277,0,0,1,338,1211.63a320.39,320.39,0,0,1-13.38-32.1H326a281.45,281.45,0,0,0,66.86,58.78A415.87,415.87,0,0,0,461,1275.84a334.89,334.89,0,0,1,84.23,49.46l5.31,4c1.38,1.37,1.38,0,1.38-1.32s-40.15-41.46-52.14-124.32a498.68,498.68,0,0,0-14.78-89.6v-2.68a389.66,389.66,0,0,1,64.24,115l24.08,68.17a212.58,212.58,0,0,0,49.46,81.29l2.62,2.63v1.36c-4,0-5.31-1.36-8-1.36v.3C592,1373.4,566.65,1366.7,541.19,1360Z"/><path class="cls-2" d="M1725.77,980.19a4.87,4.87,0,0,1,2.69-1.39v5.37a239.6,239.6,0,0,1-43.76,140.4,300.36,300.36,0,0,1-84.31,79.79l-80.17,49.46v-2.69c17.32-33.38,20-72.09,22.69-109.62,2.71-32.08-2.68-73.54-1.3-105.62a378.78,378.78,0,0,1,16-77.52c0-1.39,1.38-2.71,1.38-4l1.33,1.3c3.93,38.77,17.38,73.56,22.69,105.64a269.73,269.73,0,0,1-8,113.67c-1.32,1.32,1.37,2.63,1.37,1.32a892.93,892.93,0,0,1,88.23-100.06A237.09,237.09,0,0,0,1726.08,980Z"/><path class="cls-2" d="M1675.32,1181.85a330.9,330.9,0,0,1-13.4,32.14,273.82,273.82,0,0,1-84.22,98.94A270.79,270.79,0,0,1,1460,1362.39l-77.54,16c-2.69,0-5.32,1.36-8,1.36v-1.36l2.68-2.63a198.37,198.37,0,0,0,49.46-81.31l24.08-68.15a388.93,388.93,0,0,1,64.16-115V1114a502.81,502.81,0,0,0-13.38,89.6c-12,84.24-52.16,124.26-52.16,125.64s0,1.37,1.38,1.37l5.31-4a332.44,332.44,0,0,1,84.23-49.54,419,419,0,0,0,68.22-37.52,283,283,0,0,0,66.87-58.84v-.18C1676.62,1179.22,1677.94,1179.22,1675.32,1181.85Z"/><path class="cls-2" d="M546.58,1444A233.32,233.32,0,0,1,440,1361.21h2.69A189.32,189.32,0,0,0,499,1390.66,328.81,328.81,0,0,0,587.23,1404a1082.38,1082.38,0,0,1,115,9.32c2.68,0,4,0,2.68-1.32a136.33,136.33,0,0,1-75-72.21c-12.13-24-32.2-68.17-37.51-76.17V1261l57.45,49.46,62.53,60.17a259.22,259.22,0,0,0,98.94,50.82h1.38a1.32,1.32,0,0,1,1.31,1.33h-1.31l-72.23,17.38a431.66,431.66,0,0,1-92.06,17.38l-.18-.12A291.75,291.75,0,0,1,546.58,1444Z"/><path class="cls-2" d="M1628.4,781.15l5.46,11.8,8,21.45,1.31,2.39c1.32,0,2.64,1.24,2.64,0s-2.64-34.77-2.64-38.78a388.31,388.31,0,0,1,6.63-78.85,246.22,246.22,0,0,0-1.3-98.94l-2.69-8.06-1.32-5.31a4.53,4.53,0,0,1,1.32-2.69c34.77,42.77,53.51,119,45.45,179.16a675,675,0,0,1-20,75l-22.75,69.53a1.31,1.31,0,0,1-1.32-1.3A361.07,361.07,0,0,0,1595,806.53l-4-5.31A377.48,377.48,0,0,1,1542.85,729c-8-18.68-20.06-58.84-21.37-62.85h4a259.32,259.32,0,0,0,48.16,53.53A184.79,184.79,0,0,1,1628.4,781.15Z"/><path class="cls-2" d="M319.51,1124.82a242.82,242.82,0,0,1-44.08-140.38c0-2.69-1.39-5.37,0-5.37a4.48,4.48,0,0,1,2.62,1.36,234,234,0,0,0,61.53,94.93,789.24,789.24,0,0,1,88.24,100.06c0,1.3,2.68,0,1.32-1.39a273.77,273.77,0,0,1-8-113.61c2.69-16,7.71-32.75,12.4-50.31s9-35.93,10.36-55.33l1.3-1.36c0,1.36,1.32,2.69,1.32,4a393.05,393.05,0,0,1,15.82,79.11c1.32,32.08-4,72.18-1.31,105.62,2.63,37.47,5.32,74.86,22.7,109.63a4.56,4.56,0,0,1-1.32,2.68L402.19,1205l.25.06A296,296,0,0,1,319.51,1124.82Z"/><path class="cls-3" d="M978.94,640.17c60.59-8.09,115.78.05,156.38,50.38q99.26,123,200,244.85c16.41,19.93,33.34,39.46,48.65,60.29,1.63,2.21,3.22,4.45,5.1,7-5.3,2.32-10.65,2-15.75,2.49-26.6,2.34-53,1.93-78.5-7.39a119.83,119.83,0,0,1-50.29-34.3c-67.93-78.18-132.62-159-198.28-239.08q-32-39-63.78-78.33C981.2,644.56,979.43,643.27,978.94,640.17Z"/><path class="cls-2" d="M874.21,641.11c-11,12.89-21.08,24.79-31.21,36.67Q782,749.44,720.87,821c-3.69,4.3-3.41,6.57.15,10.66q72.36,82.85,144.37,166c.89,1,1.73,2.09,2.89,3.49-5.39,2.6-10.95,2.16-16.23,2.69-20.49,2.07-40.94,2.28-61.31-1.73-26.09-5.14-47.37-18.15-65.37-37.5-39.31-42.26-75.13-87.46-112.55-131.32-2.39-2.8-2.58-4.55-.22-7.51,39.39-49.4,77.21-100,118.56-147.89,21.31-24.65,48.88-36,80.72-38.69C832.21,637.45,852.42,638.92,874.21,641.11Z"/><path class="cls-4" d="M876.87,728.22c33.12-2.18,64.39-5.13,95,4.87,17.76,5.8,32.41,16,45,29.76,69.72,76.54,135.67,156.31,203.09,234.82,1.17,1.35,2.21,2.82,3.68,4.72-7,2.65-13.89,2.66-20.57,3.18-59.41,4.7-108.26-16.15-145.48-62.41-49.59-61.61-101.79-121-152.93-181.28C895.6,751.21,886.83,740.3,876.87,728.22Z"/><path class="cls-5" d="M1058.46,1003a247.92,247.92,0,0,1-48.63,3.59c-22.16-.61-43.45-4.9-62.82-16.4-15.09-9-26.8-21.76-38.92-34.05-39.32-39.88-76.25-82-114.43-122.93-.93-1-1.71-2.12-3-3.7,9-2.5,17.91-2.07,26.64-2.45,29.75-1.28,58.95.81,86.28,14.39,18.64,9.27,32.27,24.23,46.07,39.11,36.21,39,70.85,79.46,106.29,119.18C1056.72,1000.56,1057.32,1001.5,1058.46,1003Z"/><path class="cls-2" d="M587.93,1211.89V1092.22h45v33.45l26.21-33.45h50.73L669,1141.84l44.6,70.05H666l-24.53-41.62-8.55,10.4v31.22Z"/><path class="cls-2" d="M720.06,1211.89V1092.22H762.8l24.34,49.43,24.16-49.43H854v119.67h-45v-42l-10.6,21.55H775.62L765,1169.9v42Z"/><path class="cls-2" d="M934.87,1213.75q-35.31,0-53.43-15.61t-18.11-46.08q0-30.48,17.93-46.09t53.24-15.61a110.75,110.75,0,0,1,20.35,1.67,108.35,108.35,0,0,1,17.37,4.84v39.21a82,82,0,0,0-34.75-7.81q-13,0-20.63,5.11t-7.61,18.68q0,13.56,7.8,18.67t20.81,5.11a82.09,82.09,0,0,0,34.75-7.8v39.21a132.07,132.07,0,0,1-17.37,4.74A105.22,105.22,0,0,1,934.87,1213.75Z"/><path class="cls-3" d="M1018.12,1211.89V1092.22h42.74l24.34,49.43,24.16-49.43h42.74v119.67h-45v-42l-10.59,21.55h-22.86l-10.59-21.55v42Z"/><path class="cls-3" d="M1224,1213.75a79.61,79.61,0,0,1-30.47-5.57,48.48,48.48,0,0,1-21.47-16.54q-7.89-11-7.89-27v-72.47h45v66.71q0,16.72,14.86,16.73t14.87-16.73v-66.71h45v72.47q0,16-7.9,27a48.5,48.5,0,0,1-21.46,16.54A79.7,79.7,0,0,1,1224,1213.75Z"/><path class="cls-3" d="M1295.93,1211.89V1092.22h37.72l33.45,46.83v-46.83h45v119.67h-37.91l-33.27-46.83v46.83Z"/></g></svg>